<mxfile host="app.diagrams.net" modified="2022-09-23T05:12:27.660Z" agent="5.0 (Windows)" etag="KS3gA_MlPyvJup5OFbOI" version="20.3.6" type="github">
  <diagram id="prtHgNgQTEPvFCAcTncT" name="Page-1">
    <mxGraphModel dx="877" dy="480" grid="1" gridSize="10" guides="1" tooltips="1" connect="1" arrows="1" fold="1" page="1" pageScale="1" pageWidth="827" pageHeight="1169" math="0" shadow="0">
      <root>
        <mxCell id="0" />
        <mxCell id="1" parent="0" />
        <mxCell id="XcB_LzraUVsoKtwaO6du-1" value="y" style="ellipse;whiteSpace=wrap;html=1;aspect=fixed;fillColor=#E6E6E6;" vertex="1" parent="1">
          <mxGeometry x="40" y="120" width="50" height="50" as="geometry" />
        </mxCell>
        <mxCell id="XcB_LzraUVsoKtwaO6du-2" value="" style="endArrow=classic;html=1;rounded=0;exitX=1;exitY=0.5;exitDx=0;exitDy=0;" edge="1" parent="1" source="XcB_LzraUVsoKtwaO6du-1" target="XcB_LzraUVsoKtwaO6du-5">
          <mxGeometry width="50" height="50" relative="1" as="geometry">
            <mxPoint x="290" y="220" as="sourcePoint" />
            <mxPoint x="160" y="145" as="targetPoint" />
          </mxGeometry>
        </mxCell>
        <mxCell id="XcB_LzraUVsoKtwaO6du-8" style="edgeStyle=orthogonalEdgeStyle;rounded=0;orthogonalLoop=1;jettySize=auto;html=1;" edge="1" parent="1" source="XcB_LzraUVsoKtwaO6du-3" target="XcB_LzraUVsoKtwaO6du-5">
          <mxGeometry relative="1" as="geometry">
            <Array as="points">
              <mxPoint x="65" y="100" />
              <mxPoint x="170" y="100" />
            </Array>
          </mxGeometry>
        </mxCell>
        <mxCell id="XcB_LzraUVsoKtwaO6du-15" style="edgeStyle=orthogonalEdgeStyle;rounded=0;orthogonalLoop=1;jettySize=auto;html=1;" edge="1" parent="1" source="XcB_LzraUVsoKtwaO6du-3" target="XcB_LzraUVsoKtwaO6du-13">
          <mxGeometry relative="1" as="geometry">
            <Array as="points">
              <mxPoint x="180" y="70" />
              <mxPoint x="180" y="87" />
            </Array>
          </mxGeometry>
        </mxCell>
        <mxCell id="XcB_LzraUVsoKtwaO6du-3" value="x" style="ellipse;whiteSpace=wrap;html=1;aspect=fixed;fillColor=#E6E6E6;" vertex="1" parent="1">
          <mxGeometry x="40" y="40" width="50" height="50" as="geometry" />
        </mxCell>
        <mxCell id="XcB_LzraUVsoKtwaO6du-9" style="edgeStyle=orthogonalEdgeStyle;rounded=0;orthogonalLoop=1;jettySize=auto;html=1;entryX=0.333;entryY=0.938;entryDx=0;entryDy=0;entryPerimeter=0;" edge="1" parent="1" source="XcB_LzraUVsoKtwaO6du-4" target="XcB_LzraUVsoKtwaO6du-7">
          <mxGeometry relative="1" as="geometry" />
        </mxCell>
        <mxCell id="XcB_LzraUVsoKtwaO6du-4" value="z" style="ellipse;whiteSpace=wrap;html=1;aspect=fixed;fillColor=#E6E6E6;" vertex="1" parent="1">
          <mxGeometry x="40" y="200" width="50" height="50" as="geometry" />
        </mxCell>
        <mxCell id="XcB_LzraUVsoKtwaO6du-5" value="&lt;b&gt;&lt;span style=&quot;background-color: rgb(255, 255, 255);&quot;&gt;*&lt;/span&gt;&lt;/b&gt;" style="shape=or;whiteSpace=wrap;html=1;labelBackgroundColor=#E6E6E6;fillColor=#FFFFFF;" vertex="1" parent="1">
          <mxGeometry x="150" y="117.5" width="40" height="55" as="geometry" />
        </mxCell>
        <mxCell id="XcB_LzraUVsoKtwaO6du-6" value="" style="endArrow=classic;html=1;rounded=0;exitX=1;exitY=0.5;exitDx=0;exitDy=0;exitPerimeter=0;" edge="1" parent="1" source="XcB_LzraUVsoKtwaO6du-5" target="XcB_LzraUVsoKtwaO6du-7">
          <mxGeometry width="50" height="50" relative="1" as="geometry">
            <mxPoint x="170" y="280" as="sourcePoint" />
            <mxPoint x="250" y="145" as="targetPoint" />
          </mxGeometry>
        </mxCell>
        <mxCell id="XcB_LzraUVsoKtwaO6du-7" value="+" style="shape=or;whiteSpace=wrap;html=1;labelBackgroundColor=#FFFFFF;fillColor=#FFFFFF;" vertex="1" parent="1">
          <mxGeometry x="230" y="117.5" width="40" height="55" as="geometry" />
        </mxCell>
        <mxCell id="XcB_LzraUVsoKtwaO6du-10" value="" style="endArrow=classic;html=1;rounded=0;exitX=1;exitY=0.5;exitDx=0;exitDy=0;exitPerimeter=0;" edge="1" parent="1" source="XcB_LzraUVsoKtwaO6du-7" target="XcB_LzraUVsoKtwaO6du-11">
          <mxGeometry width="50" height="50" relative="1" as="geometry">
            <mxPoint x="170" y="280" as="sourcePoint" />
            <mxPoint x="360" y="145" as="targetPoint" />
          </mxGeometry>
        </mxCell>
        <mxCell id="XcB_LzraUVsoKtwaO6du-20" style="edgeStyle=orthogonalEdgeStyle;rounded=0;orthogonalLoop=1;jettySize=auto;html=1;entryX=0.7;entryY=0.9;entryDx=0;entryDy=0;entryPerimeter=0;" edge="1" parent="1" source="XcB_LzraUVsoKtwaO6du-11" target="XcB_LzraUVsoKtwaO6du-18">
          <mxGeometry relative="1" as="geometry" />
        </mxCell>
        <mxCell id="XcB_LzraUVsoKtwaO6du-25" style="edgeStyle=orthogonalEdgeStyle;rounded=0;orthogonalLoop=1;jettySize=auto;html=1;entryX=0.506;entryY=0.929;entryDx=0;entryDy=0;entryPerimeter=0;" edge="1" parent="1" source="XcB_LzraUVsoKtwaO6du-11" target="XcB_LzraUVsoKtwaO6du-23">
          <mxGeometry relative="1" as="geometry">
            <mxPoint x="335" y="220" as="targetPoint" />
            <Array as="points">
              <mxPoint x="335" y="210" />
              <mxPoint x="451" y="210" />
            </Array>
          </mxGeometry>
        </mxCell>
        <mxCell id="XcB_LzraUVsoKtwaO6du-11" value="a" style="ellipse;whiteSpace=wrap;html=1;aspect=fixed;labelBackgroundColor=#FFFFFF;fillColor=#FFFFFF;" vertex="1" parent="1">
          <mxGeometry x="310" y="120" width="50" height="50" as="geometry" />
        </mxCell>
        <mxCell id="XcB_LzraUVsoKtwaO6du-19" value="" style="edgeStyle=orthogonalEdgeStyle;rounded=0;orthogonalLoop=1;jettySize=auto;html=1;" edge="1" parent="1" source="XcB_LzraUVsoKtwaO6du-13" target="XcB_LzraUVsoKtwaO6du-18">
          <mxGeometry relative="1" as="geometry" />
        </mxCell>
        <mxCell id="XcB_LzraUVsoKtwaO6du-13" value="+" style="shape=or;whiteSpace=wrap;html=1;labelBackgroundColor=#FFFFFF;fillColor=#FFFFFF;" vertex="1" parent="1">
          <mxGeometry x="270" y="60" width="40" height="55" as="geometry" />
        </mxCell>
        <mxCell id="XcB_LzraUVsoKtwaO6du-17" style="edgeStyle=orthogonalEdgeStyle;rounded=0;orthogonalLoop=1;jettySize=auto;html=1;" edge="1" parent="1" source="XcB_LzraUVsoKtwaO6du-16" target="XcB_LzraUVsoKtwaO6du-13">
          <mxGeometry relative="1" as="geometry">
            <Array as="points">
              <mxPoint x="290" y="35" />
            </Array>
          </mxGeometry>
        </mxCell>
        <mxCell id="XcB_LzraUVsoKtwaO6du-16" value="x" style="ellipse;whiteSpace=wrap;html=1;aspect=fixed;fillColor=#E6E6E6;" vertex="1" parent="1">
          <mxGeometry x="100" y="10" width="50" height="50" as="geometry" />
        </mxCell>
        <mxCell id="XcB_LzraUVsoKtwaO6du-22" value="" style="edgeStyle=orthogonalEdgeStyle;rounded=0;orthogonalLoop=1;jettySize=auto;html=1;" edge="1" parent="1" source="XcB_LzraUVsoKtwaO6du-18" target="XcB_LzraUVsoKtwaO6du-21">
          <mxGeometry relative="1" as="geometry" />
        </mxCell>
        <mxCell id="XcB_LzraUVsoKtwaO6du-18" value="&lt;b&gt;&lt;span style=&quot;background-color: rgb(255, 255, 255);&quot;&gt;*&lt;/span&gt;&lt;/b&gt;" style="shape=or;whiteSpace=wrap;html=1;labelBackgroundColor=#E6E6E6;fillColor=#FFFFFF;" vertex="1" parent="1">
          <mxGeometry x="370" y="60" width="40" height="55" as="geometry" />
        </mxCell>
        <mxCell id="XcB_LzraUVsoKtwaO6du-24" style="edgeStyle=orthogonalEdgeStyle;rounded=0;orthogonalLoop=1;jettySize=auto;html=1;entryX=0;entryY=0.5;entryDx=0;entryDy=0;entryPerimeter=0;" edge="1" parent="1" source="XcB_LzraUVsoKtwaO6du-21" target="XcB_LzraUVsoKtwaO6du-23">
          <mxGeometry relative="1" as="geometry" />
        </mxCell>
        <mxCell id="XcB_LzraUVsoKtwaO6du-21" value="b" style="ellipse;whiteSpace=wrap;html=1;aspect=fixed;labelBackgroundColor=#FFFFFF;fillColor=#FFFFFF;" vertex="1" parent="1">
          <mxGeometry x="450" y="62.5" width="50" height="50" as="geometry" />
        </mxCell>
        <mxCell id="XcB_LzraUVsoKtwaO6du-28" style="edgeStyle=orthogonalEdgeStyle;rounded=0;orthogonalLoop=1;jettySize=auto;html=1;" edge="1" parent="1" source="XcB_LzraUVsoKtwaO6du-23" target="XcB_LzraUVsoKtwaO6du-29">
          <mxGeometry relative="1" as="geometry">
            <mxPoint x="500" y="260" as="targetPoint" />
          </mxGeometry>
        </mxCell>
        <mxCell id="XcB_LzraUVsoKtwaO6du-23" value="&lt;b&gt;&lt;span style=&quot;background-color: rgb(255, 255, 255);&quot;&gt;*&lt;/span&gt;&lt;/b&gt;" style="shape=or;whiteSpace=wrap;html=1;labelBackgroundColor=#E6E6E6;fillColor=#FFFFFF;rotation=90;" vertex="1" parent="1">
          <mxGeometry x="510" y="150" width="40" height="55" as="geometry" />
        </mxCell>
        <mxCell id="XcB_LzraUVsoKtwaO6du-29" value="&lt;span style=&quot;background-color: rgb(230, 230, 230);&quot;&gt;w&lt;/span&gt;" style="ellipse;whiteSpace=wrap;html=1;aspect=fixed;labelBackgroundColor=#FFFFFF;fillColor=#E6E6E6;" vertex="1" parent="1">
          <mxGeometry x="475" y="250" width="50" height="50" as="geometry" />
        </mxCell>
      </root>
    </mxGraphModel>
  </diagram>
</mxfile>
